<svg width="607.72pt" height="671.77pt" viewBox="0 0 607.716354 671.770127" xmlns="http://www.w3.org/2000/svg">
<g transform="translate(-96 733.87) scale(.1 -.1)">
<path d="m5585 7326c-95-30-190-99-221-159-16-31-12-76 9-89 23-15 75-8 118 16 76 42 169 68 244 69 125 0 206-52 249-162 20-52 37-174 29-213l-5-27-30 30c-25 24-38 29-67 27-38-3-39-6-95-128-8-16-21-26-39-28-42-5-80 43-113 141-55 169-101 227-178 227-53 0-88-25-118-83-19-37-22-60-24-202-2-149 0-168 27-275 17-63 36-121 44-129s42-18 77-22c77-9 94-26 73-75-14-33-65-110-130-194-65-85-76-131-86-360-11-282-37-418-121-640-50-130-64-177-78-261-13-74-36-120-75-145-23-15-30-15-73-3-66 20-296 16-346-5-43-18-46-43-6-63 34-17 246-16 330 1 83 17 97 8 149-99 48-97 85-254 101-426 14-143 9-533-10-754-9-102-10-263-4-595 5-250 9-664 9-920 0-503-1-513-54-564-28-27-30-27-59-12-17 9-46 16-65 16-44 0-137-28-159-48-22-19-23-48-2-56 32-12 124-5 186 14 34 11 64 20 65 20 6 0 22-75 27-126 7-76-9-104-60-104-36 0-35-1-64 77-27 72-92 44-125-53-19-55-22-59-64-71-61-17-384-38-406-26-14 8-3 14 50 27 165 41 254 124 283 262 6 28 17 169 23 313 20 414-4 877-91 1771-24 243-35 302-60 325-17 16-19 15-34-7-40-61-32-329 39-1378 22-323 30-787 16-893-23-169-70-253-172-306-35-19-74-43-86-54-41-37-194-33-201 5-2 10 18 29 58 53 95 58 175 138 211 210 58 118 50 258-37 668-109 514-129 639-146 897-10 167-9 209 10 435 12 138 27 351 32 475 16 348 43 735 56 801 3 14 19 36 35 48 42 31 61 82 57 149-3 54-2 56 32 76 30 18 58 21 190 26 148 5 158 7 223 38 181 85 313 318 372 656 39 226-5 351-111 316-46-16-108-86-212-243-178-269-320-413-364-369-16 16-11 133 12 257 11 61 20 114 20 118s9 3 21-3c43-24 87 33 135 174 29 84 49 116 72 116 10 0 42-16 72-35s64-35 75-35c12 0 42 22 70 50s73 64 101 80c38 21 57 40 73 73 40 82 21 209-41 274-21 22-21 24-4 75 56 171 11 367-101 438-64 41-117 47-200 22-37-11-90-23-116-27-61-8-109-49-134-113s-25-208 0-246c30-46 69-29 97 42 25 64 82 79 141 39 19-13 60-51 93-85 32-34 81-76 107-93 27-17 49-36 49-42 0-23-73-139-121-192-64-70-125-106-178-107-42 0-64 10-116 56-56 49-70 48-235-24-145-63-159-71-209-127-45-51-46-52-66-33-11 10-52 35-91 54s-100 58-134 86c-35 27-66 50-70 50-20 0-39-30-42-65-3-36-6-40-37-46-54-11-63-28-87-169-12-72-25-138-29-147-4-13-17 3-48 59-65 117-121 171-229 222-31 15-59 34-62 42-3 9 6 47 21 86 27 68 28 69 58 64 16-4 56-27 88-52s70-50 85-55c64-24 130 16 206 125 58 84 64 102 72 208 4 57 14 107 25 129 26 52 38 132 28 187-18 97-151 236-252 263-58 15-160 6-231-22-81-32-167-116-185-181-34-123-1-290 75-381 21-25 24-39 24-115v-87l-110-74c-145-99-172-127-177-188-4-37 1-63 20-108 59-143 86-245 133-515 18-107 36-207 40-221 7-30-11-39-63-32-30 5-30 5-36 81-4 43-15 111-26 152-15 55-21 107-21 195 0 139-18 237-57 314-32 63-54 81-80 65-39-24-28-97 48-324 27-79 49-156 49-170 0-29-36-159-78-280-26-76-32-86-57-90-45-8-70-51-70-122 0-47 4-63 18-72 29-19 50 5 77 87 21 65 29 78 50 83 14 3 47 14 74 24l48 19-6-47c-4-26-12-79-18-118l-10-72-128-57c-71-32-143-57-163-58-44-1-70 18-57 43 27 51 29 105 9 228l-21 122 36 178c70 347 82 494 50 603-28 94-97 169-158 169-44 0-92-56-107-127-11-55-9-72 50-353 104-499 97-447 78-565-21-128-21-150-1-231 15-59 15-67 1-81s-21-8-75 65c-69 93-63 69-116 467-76 575-74 632 36 768 55 69 64 121 28 157-43 43-103 12-136-69-24-60-39-59-108 7-34 33-87 76-119 96-36 23-57 44-57 55 0 34 30 91 48 91 28 0 162-36 239-64 118-42 188-33 226 32 55 93 72 260 50 482-15 151-32 195-87 238-44 34-97 30-142-10-34-30-45-33-122-39-79-5-87-7-113-37-38-42-45-101-25-202 21-102 16-120-31-120-55 0-99 50-108 123-13 106 18 191 102 275 74 75 147 107 243 107 76 0 89-4 187-61 25-15 37-17 50-8 31 19 27 57-9 105-76 99-180 129-318 91-41-11-96-23-123-26-135-16-214-116-225-281-7-113 15-195 78-295 5-8 27-57 50-109 29-65 40-104 38-130l-3-36-65-8c-72-9-182-58-243-108-37-30-77-94-77-122 0-8-14-20-30-27-116-48-230-360-261-710-24-284 15-536 122-787 77-181 140-253 223-253l41-1-33-29c-34-32-57-36-110-21-42 12-75 0-99-35-23-35-21-157 6-315 36-210 45-313 44-514 0-274-31-500-108-791-131-495-156-638-156-879 0-233 30-365 93-409 28-20 80-21 116-2 75 39 112 112 148 289 33 165 73 246 168 340 39 40 79 83 88 97 45 72 99 280 148 570 36 211 107 554 160 775 86 356 118 502 155 705 54 291 51 356-22 401-31 19-45 21-126 17-103-6-193-32-327-97-46-22-86-38-89-36-10 11 52 172 76 198 33 34 51 34 291 7 255-29 331-51 389-113 51-54 55-80 60-372 16-824-74-1496-277-2085-77-220-83-261-79-520 4-206 5-217 29-265 32-64 85-97 209-129 97-25 126-42 116-68-11-28-58-41-165-46-90-4-113-1-165 18-127 46-130 46-180 22-35-17-64-22-124-22-101 0-104 4-95 112 4 58 1 119-10 199-17 114-14 233 10 474 5 51 3 64-14 85-18 22-22 23-45 11-29-15-87-118-118-208-30-88-57-216-70-341-7-67-17-112-23-112s-33-12-61-26c-38-21-70-28-140-34-112-8-135-19-135-64 0-42 57-101 142-146 101-54 182-41 214 35 7 18 17 70 21 116l7 84 22-75c13-41 35-100 50-132 15-31 24-64 21-73-4-9-24-23-44-32-35-14-56-14-256 2-246 20-379 16-500-15-87-22-177-66-177-87 0-18 11-16 61 11 123 68 298 86 594 61 221-19 281-16 325 15 38 27 40 67 6 130-13 25-34 78-46 117-12 40-31 84-42 98-19 24-19 31-8 133 17 154 62 322 112 422 45 89 74 111 72 55 0-16-6-109-14-206-11-149-11-191 1-265 7-49 14-146 14-216 0-157 0-157 129-158 71 0 97 4 132 22l43 21 62-28c53-23 80-29 174-33 134-6 206 8 235 45 27 34 25 49-8 82-19 19-49 33-102 46-95 23-162 56-189 94-34 48-43 129-39 356l4 210 72 215c106 314 143 458 197 778 63 376 90 792 83 1290-5 346-7 363-66 426-33 35-108 70-182 85-118 24-462 59-495 50-52-15-77-52-115-172-34-105-38-112-64-115-69-8-119 34-178 151-128 256-182 540-158 834 26 312 100 559 202 669 45 48 58 54 58 25 0-11 39-156 86-323s92-327 100-355c23-85 79-94 105-16 29 89-31 397-116 589-32 72-77 128-115 144-35 14-34 11-17 53 29 69 147 145 259 169 32 7 59 10 62 7 2-2 0-22-6-45-17-62-5-88 55-123 28-16 81-57 117-90 36-34 73-63 82-67 28-9 53 12 82 70 29 57 57 76 81 56 27-22 17-63-26-115-57-67-88-140-95-217-6-60 16-345 36-473 5-33 21-145 35-250 14-104 31-206 37-225s35-69 64-111c67-95 87-106 125-68 18 18 24 19 50 9 40-17 85-6 211 50 59 27 108 47 108 44 0-2-14-52-30-111-17-60-39-157-50-218-39-227-43-313-35-920 6-505 5-607-10-785-19-220-17-464 6-715 8-92 9-216 3-425-12-408-11-458 17-537 26-72 81-138 125-149 57-14 128 50 151 137 6 20 7 99 2 194-26 530-26 531 46 1e3 24 160 47 313 51 340 5 38 15 58 41 84 31 31 37 33 85 29 81-8 93-29 102-174 4-66 18-204 32-309 48-369 54-442 57-660l3-220 32-77c17-43 38-109 46-147 18-85 37-116 90-143 54-28 157-30 185-4 34 31 33 51-5 143-107 258-120 392-89 898 8 132 18 335 21 450l7 210 33 28c20 16 38 43 43 65 18 69 106 1124 117 1407 5 124 4 144-13 176l-19 35 27 26c27 27 41 70 34 104-2 10-6 47-9 82l-6 62h65c63 0 65-1 60-22-10-49-25-235-40-498-8-151-20-363-26-470s-17-258-25-335c-33-333-6-628 106-1150 89-413 102-494 104-620 1-104-2-126-21-168-35-74-87-131-184-197-49-33-94-70-99-80-26-49 35-82 143-79 50 2 69-2 82-14 27-28 61-31 245-18 248 16 266 23 296 115 28 88 55 98 74 27 5-21 19-46 30-56 31-28 85-25 116 7 22 21 26 35 27 84 0 33-6 83-13 112-11 49-11 55 8 75 11 12 30 42 42 66 35 70 44 347 28 871-17 557-17 1115 0 1295 29 303 11 690-43 907-27 112-76 226-110 258l-23 22 38 38c38 38 39 42 70 195 7 33 39 130 71 215 82 220 109 358 119 625 9 251 15 271 118 407 118 155 136 225 66 254-18 8-51 14-72 14-24 0-45 6-52 15s-25 64-40 123c-24 96-27 123-25 257 1 121 5 158 20 188 21 45 50 67 88 67 62 0 97-46 148-199 32-92 65-143 109-166 26-13 34-14 64-1 27 11 37 24 50 63 34 102 65 117 116 56 38-45 36-73-9-168-42-90-97-146-194-195-139-72-154-101-92-179 46-58 64-70 102-71 26 0 48 15 123 85 121 111 158 129 258 123 179-11 361-163 411-343 6-22 16-88 21-146s20-153 32-210c32-146 32-331-1-444-28-100-127-303-187-387-42-58-90-108-105-108-3 0 6 26 21 58 191 403 242 755 155 1082-30 113-99 259-149 316-40 47-110 84-159 84-75 0-152-85-177-195-18-77-13-244 10-420 23-170 23-271-1-450-14-108-6-175 26-213l24-29-39-38c-74-72-99-177-54-226 27-30 115-51 194-47 39 2 70 0 70-5 0-4-25-58-56-120-91-180-173-297-210-297-7 0-27 26-46 58l-33 57v148c0 132-2 150-18 162-27 20-70 4-164-62-130-91-185-123-213-123h-26l22 143c45 289 49 354 49 833v461l38 54c21 30 49 70 63 89 33 45 29 89-8 109-25 14-29 14-54-5-44-32-64-83-73-185-5-55-19-123-34-164-47-131-79-328-113-700-9-93-18-222-21-285-5-107-3-121 22-190 14-41 30-90 35-108 4-18 14-42 22-54 13-19 11-38-20-167-71-301-73-316-79-526-3-139 0-260 11-395 58-706 89-949 176-1360 70-332 74-362 75-550 0-203-11-252-78-353-52-76-120-129-212-163-38-14-85-33-103-42-41-19-52-55-26-84 35-39 82-51 208-54 87-2 123-7 135-18 44-40 102-51 256-50 127 0 160 3 214 22 79 27 116 28 176 1 40-18 62-20 162-17 110 3 116 4 138 30 13 15 25 32 27 38 2 7 66 12 203 13l200 2 60-29c67-33 77-36 82-20s-85 61-152 74c-42 9-109 10-227 5l-166-7-5 59c-2 32-10 98-17 146-11 72-12 118-2 250 31 410 27 594-28 1317-67 890-66 1160 6 1480 20 92 23 307 5 401-17 87-48 143-83 147-65 8-102-139-129-508-16-232-8-499 41-1280 15-229 12-658-5-875-21-265-30-711-17-869 9-108 16-138 39-185 29-58 84-100 130-101 31 0 37-16 13-40-30-30-200-29-270 1-58 25-105 23-229-11-72-19-102-22-200-18-79 3-130 11-159 23-66 27-61 29 128 45 208 18 243 32 280 106 40 81 39 102-60 924-107 888-164 1269-226 1518-46 183-73 232-110 202-28-24-15-167 60-650 161-1032 233-1613 225-1816-6-141-40-170-237-203-123-20-152-31-152-57 0-47-259-21-292 30-12 18 11 34 70 51 126 37 237 119 295 218 15 24 36 80 48 123 20 72 21 95 16 259-5 169-9 197-60 445-76 367-113 591-141 865-38 370-66 748-66 902 0 181 19 324 74 543l43 175 39 6c48 7 79 23 174 91 105 75 144 98 168 98 19 0 20-5 18-147l-1-148 38-67c34-61 41-68 69-68 60 0 137 106 264 362 38 76 66 120 80 127 96 43 244 277 312 491 58 182 60 291 13 494-11 44-22 124-26 176-12 190-57 303-159 403-73 72-179 129-273 147-111 22-187-12-329-144-40-36-81-66-92-66-27 0-104 88-100 114 2 15 27 33 79 61 115 60 155 92 198 157 41 60 81 154 81 188 0 11 9 24 20 30s28 27 39 48c60 121 11 366-96 476-48 49-88 66-158 66-31 0-72 7-92 15-42 18-103 18-158 1zm152-31c19-8 64-15 98-15 56 0 68-4 107-33 48-36 98-120 124-207 22-71 22-193 1-242-9-21-17-38-19-38s-3 35-3 78c-1 102-32 204-81 260-101 118-264 129-471 32-73-34-89-38-100-27-44 44 68 150 202 193 54 17 99 17 142-1zm-3142-264c44-20 125-102 125-126 0-20-2-20-54 14-64 40-125 55-200 49-85-7-163-45-235-113-69-66-110-143-120-228l-7-62-13 60c-20 89-9 195 26 264 38 74 90 106 206 126 48 9 97 20 110 25 37 15 120 11 162-9zm80-223c38-30 53-72 60-169 4-46 11-117 16-156 17-118-18-305-68-363-20-25-32-30-69-30-24 0-67 10-96 21-68 27-216 69-245 69-20 0-23 5-23 44 0 30-12 71-34 120-32 71-35 91-9 65 5-5 30-9 54-7 35 2 46 8 58 29 13 24 13 37-4 122-31 159-2 207 125 207 64 0 87 8 133 46 35 30 66 30 102 2zm1063-3c63-19 170-114 201-179 30-62 28-146-6-216-20-43-27-75-31-145-5-102-19-137-91-228-78-100-120-107-207-35-52 43-100 68-133 68-17 0-19 8-20 83-1 76 1 83 21 92 13 6 39 39 58 74 48 88 132 174 193 196 44 17 51 17 98 2 79-26 115 9 89 87-61 185-309 218-449 60-59-68-75-125-68-252 3-57 1-100-3-95-23 23-50 137-50 211 0 101 28 161 100 216 89 68 198 90 298 61zm29-86c40-13 97-75 113-124 17-51 5-61-59-44-98 25-197-31-280-159-65-99-88-128-95-121-11 10-26 120-26 185 0 81 25 149 71 195 80 80 168 101 276 68zm1324-5c99-50 150-214 114-368-10-42-22-76-27-76-23 0-118 72-158 120-90 107-188 140-242 83-14-16-33-46-42-67-15-37-18-38-33-24-25 26-22 174 6 232 29 59 39 66 118 82 38 8 91 20 118 28 54 15 104 11 146-10zm1168-513c86-44 168-182 216-360 87-329 40-641-164-1084-37-81-42-86-76-93-48-9-158 2-193 18-14 7-33 25-41 39-13 24-13 31 3 72 9 25 37 66 61 91 42 42 47 44 77 35 49-14 125-11 158 6 35 18 41 58 11 75-31 16-102 11-150-10-55-26-74-20-96 30-18 39-18 46 0 201 19 174 17 286-10 464-8 55-15 150-15 210 0 164 30 256 100 302 40 28 69 29 119 4zm-1018-66c11-24 19-63 19-96 0-68-27-113-85-144-21-11-65-44-97-74l-59-54-43 31c-79 57-134 55-165-6-10-20-26-62-36-92-26-82-66-151-84-148-14 3-16 25-16 153 0 130-3 154-19 178-27 39-79 38-130-5-78-64-79-128-2-128 37 0 48-5 70-30 27-33 42-101 33-153-3-18-17-99-32-182-36-206-25-275 43-275 78 0 195 126 400 431 119 177 169 217 218 176 48-41 45-169-8-387-63-260-176-438-326-512-64-32-71-33-222-38-123-4-162-9-189-24l-33-18 6 44c4 24 12 62 18 85 29 115-55 137-113 30-35-65-62-92-83-80-13 7 2 29 85 123 126 144 133 154 125 184-9 37-53 58-264 130-105 36-238 84-293 106-56 22-110 40-121 40-39 0-77-32-243-207-184-194-225-234-235-228-9 5-24 81-50 245-27 170-62 309-107 430-47 126-50 156-21 198 20 28 217 176 225 168 1-1-6-20-17-41-25-48-26-87-2-107 9-8 52-34 96-59 91-51 147-109 195-202 36-69 56-86 77-65 17 17 40 108 49 190 9 85 34 128 75 128 34 0 50 22 50 69 0 41 18 40 59-3 18-19 70-53 115-75 45-23 94-52 109-64l29-22-17-84c-36-177-6-321 76-365 35-19 38-19 63-3 23 15 26 24 26 70 0 61-50 258-84 332l-23 52 32 44c35 48 87 80 209 129 43 17 88 38 100 46 33 23 62 16 111-26 56-48 110-65 163-51 89 25 195 126 263 254 30 57 33 59 47 41 8-10 23-37 33-59zm409-42c0-19-16-46-69-114l-34-44 7 48c9 70 41 127 71 127 17 0 25-6 25-17zm-3743-225c82-85 173-365 189-579 5-67 3-88-9-104-10-13-19-17-25-10-6 6-26 69-45 140-19 72-59 216-90 320-80 278-81 297-20 233zm2723-3c7-8 15-48 18-87l5-73-35 38c-30 31-42 37-77 37-53 0-53 17-1 64 43 39 70 45 90 21zm-1837-55c74-65 103-205 78-382-21-151-75-417-83-412-4 3-8 14-8 25s-25 140-56 287c-74 351-75 356-63 411 11 52 49 101 79 101 11 0 35-13 53-30zm2733-555c-3-159-12-353-20-430-17-160-47-348-54-340-3 2-20 51-39 107-34 99-35 107-30 213 13 248 69 737 98 850 34 130 32 130 42 5 4-63 6-245 3-405zm-2432 392c31-61 56-185 55-265v-57l-44 135c-67 203-73 315-11 187zm1211-29c32-101 55-207 55-254 0-29-3-34-23-34-13 0-35 12-49 28-41 43-52 93-45 201 11 168 24 180 62 59zm-372-282c45-19 176-66 291-106 195-66 266-99 266-120 0-5-52-68-116-140l-116-131-42 34c-22 19-50 39-61 45-26 13-193 6-212-9-7-6-13-24-13-40 0-27 34-67 96-114 23-18 13-18-51-1-77 20-115-6-91-62 8-20 67-54 142-82 22-9 24-13 14-25-7-8-19-15-27-15-27 0-241 88-376 156-145 72-219 122-245 166l-16 27 95 98c52 54 140 147 194 207 96 104 145 146 173 146 7 0 50-15 95-34zm-748-262c8-44 14-97 15-120 0-38-3-41-45-62-51-24-90-29-82-9 5 15 78 246 84 266 6 25 14 5 28-75zm3110-103c9-16-30-31-79-31-53 0-67 14-29 28 36 13 100 15 108 3zm-1820-73c-20-91-24-116-25-150 0-22-10-51-23-72-22-31-35-70-52-150l-6-28-74 4c-66 3-76 6-95 31-13 16-41 40-63 54s-36 28-31 32c5 3 43 44 84 91 45 51 80 84 90 82 59-14 74-8 107 43 56 85 63 95 80 95 12 0 14-6 8-32zm-905-177c106-54 263-123 355-156 66-24 72-31 50-55-29-32-66-24-188 40-63 33-169 81-236 105-158 58-216 60-335 10-15-7-18-5-13 7 3 9 11 59 18 112l13 96 36 1c19 0 43 4 54 8 14 5 32-7 80-54 44-44 89-75 166-114zm612 137l57-41-77-90c-42-49-83-92-91-95-20-8-161 65-161 83 0 19 35 19 90 0 101-36 110 2 20 85-80 75-79 88 8 93 37 2 74 4 82 5 9 1 41-17 72-40zm-1162-36c0-21-34-109-47-122-14-13-15-9-11 38 3 31 12 60 23 72 19 21 35 26 35 12zm-216-48c12-90 1-207-17-178-13 21-12 224 2 224 4 0 11-21 15-46zm700-135c50-17 164-67 253-111 180-89 188-90 241-35l33 34 81-24c45-13 84-25 86-28 9-9 21-92 22-151 0-51-4-64-24-83l-23-22-34 20c-19 11-63 27-99 35-61 14-110 18-335 31-49 3-145 11-212 17-147 13-176 8-171-29 2-14 15-35 29-46 86-63 572-119 734-84 68 15 71 15 87-4 10-11 20-37 24-57 15-79-95-1444-122-1519-17-46-50-66-68-41-28 37-67 52-137 50-54-1-76-6-100-23-65-46-14-78 133-87l101-5-7-186c-3-102-13-310-22-461-21-362-15-580 19-710 14-52 37-122 52-155 71-157 67-170-43-163-100 5-126 31-152 149-10 46-30 111-43 144-23 56-25 77-30 290-5 181-15 297-46 545-21 173-42 362-46 420s-13 117-21 133c-48 91-206 88-249-5-19-42-113-661-127-843-9-105-9-196 0-365 17-312 19-290-20-290-48 0-136-44-150-75-29-65 81-92 145-35 19 17 37 30 41 30 14 0-45-99-70-119-45-35-95-6-142 84l-27 50v460c0 293-5 539-14 678-13 190-13 242 0 400 10 135 14 363 14 882 0 620 2 714 18 823 24 166 97 455 118 468 32 19 121 43 163 44 29 0 86-13 140-31zm951-31c-8-52-37-103-43-75-5 23 27 117 40 117 6 0 7-16 3-42zm529 3c11-17-268-30-310-14-16 6-16 7 2 14 27 11 302 11 308 0zm-863-53c53-29 49-39-8-22-53 16-57 19-48 33 9 15 12 14 56-11zm2280-40c42-108 42-352 0-530-58-243-55-603 10-1443 42-551 52-820 39-1056-23-409-23-450-7-539 29-154 30-143-9-137-50 8-94 44-116 95-42 94-48 544-13 1007 19 254 19 657 0 990-8 143-19 341-24 440-33 599-14 1009 57 1188 19 50 39 45 63-15zm-3875-211c32-37 32-104-1-292-44-248-67-358-159-738-65-266-87-373-156-744-100-540-112-575-244-713-95-99-128-162-157-293-49-226-77-290-138-321-48-25-77-20-108 19-42 53-54 113-60 302-8 259 13 399 121 811 157 598 179 911 100 1406-13 83-24 188-24 233 0 109 7 116 106 107l73-7 36 39c19 22 46 51 59 65 30 31 213 113 311 140 46 12 95 18 144 16 66-2 75-5 97-30zm1094-27c69-5 171-11 228-14 111-6 128-9 215-33 105-30 66-44-128-48-236-5-585 59-585 107 0 8 22 9 73 4 39-4 128-11 197-16zm1039-880c22-171 83-866 102-1160 16-240 16-807 0-979-14-149-30-198-85-259-37-40-123-85-186-96-33-6-32-5 15 20 95 50 142 112 182 239 16 54 18 97 17 405 0 190-6 422-12 515-58 837-78 1247-67 1356 9 88 20 75 34-41zm1004-40c74-276 136-708 282-1951 42-351 46-403 35-453-20-98-73-136-191-136-30 0-101-7-159-14-58-8-107-12-109-10-11 10 18 18 131 35 252 39 279 84 252 414-27 327-103 910-189 1450-8 50-26 160-39 245-40 251-54 359-61 465-5 90-4 98 9 75 8-14 25-68 39-120zm-1708-814c14-9 25-21 25-26 0-20-190-4-197 17-11 32 126 39 172 9zm1147-1371c-8-22-192-48-192-26 0 5 24 16 53 24 56 17 144 18 139 2zm-3292-157c0-18-5-62-10-97-11-80-37-111-92-111-73 0-222 100-216 144 3 18 13 22 104 32 79 8 111 16 145 37 58 35 69 34 69-5zm1470-82c0-25-59-66-95-66-19 0-36 4-39 9-7 11 22 37 64 55 44 19 70 20 70 2z"/>
</g>
</svg>
