<svg xmlns="http://www.w3.org/2000/svg"
 width="700.000000pt" height="525.000000pt" viewBox="0 0 700.000000 525.000000"
 preserveAspectRatio="xMidYMid meet">
<g transform="translate(0.000000,525.000000) scale(0.100000,-0.100000)"
fill="#000000" stroke="none">
<path d="M0 2625 l0 -2625 3500 0 3500 0 0 2625 0 2625 -3500 0 -3500 0 0
-2625z m4448 -2 l-3 -938 -937 -3 -938 -2 0 940 0 940 940 0 940 0 -2 -937z"/>
<path d="M2730 2830 l0 -570 775 0 775 0 0 570 0 570 -775 0 -775 0 0 -570z
m440 291 c37 -27 51 -60 47 -109 -11 -108 -140 -145 -212 -61 -18 22 -25 42
-25 73 0 100 110 156 190 97z m800 -361 c68 -168 125 -313 128 -322 4 -17 -29
-18 -587 -18 l-591 0 76 151 76 152 69 -69 c37 -37 70 -66 73 -63 2 2 41 65
86 139 46 74 87 139 92 145 5 6 44 -27 101 -82 l92 -92 125 189 c69 104 128
186 131 182 4 -4 62 -144 129 -312z"/>
</g>
</svg>
