<svg xmlns="http://www.w3.org/2000/svg"
 width="1324.314658pt" height="263.779301pt" viewBox="0 0 1324.314658 263.779301"
 preserveAspectRatio="xMidYMid meet">
<g transform="translate(-111.797781,338.874395) scale(0.100000,-0.100000)"
fill="#000000" stroke="none">
<path d="M1672 3379 c-161 -15 -299 -76 -399 -176 -34 -34 -73 -84 -87 -110
-98 -195 -64 -450 82 -605 91 -98 195 -166 406 -267 166 -79 240 -126 297
-184 63 -65 74 -91 74 -182 0 -121 -37 -179 -145 -229 -49 -23 -68 -26 -169
-26 -92 0 -127 4 -175 21 -108 38 -108 37 -140 206 -15 81 -30 156 -33 166 -4
15 -18 17 -123 17 l-118 0 -6 -92 c-3 -51 -5 -100 -4 -108 0 -8 -2 -74 -7
-146 l-7 -130 88 -23 c49 -12 105 -27 124 -32 237 -65 496 -77 690 -33 246 57
408 208 458 429 9 39 9 200 0 243 -21 106 -134 245 -266 330 -42 27 -160 92
-262 143 -207 106 -285 154 -330 205 -51 59 -70 106 -70 179 0 108 41 177 130
218 37 18 64 21 160 21 102 0 121 -3 165 -24 52 -26 53 -27 70 -130 3 -19 14
-75 24 -125 l17 -90 116 -3 115 -3 6 143 c4 79 7 181 7 228 l0 85 -37 12 c-21
6 -69 18 -108 27 -38 9 -86 21 -105 26 -45 12 -241 30 -305 29 -27 -1 -88 -5
-133 -10z"/>
<path d="M2890 3143 c-22 -71 -50 -144 -60 -163 -10 -19 -23 -44 -28 -55 -16
-32 -42 -50 -124 -81 l-78 -29 0 -72 0 -72 78 -3 77 -3 5 -515 5 -515 24 -53
c26 -57 75 -106 130 -129 126 -53 412 -22 585 63 95 47 92 41 61 133 l-26 79
-32 -10 c-55 -17 -120 -27 -190 -27 -58 -1 -71 2 -92 23 -33 33 -36 88 -33
551 l3 400 178 3 177 2 0 105 0 105 -182 2 -183 3 -2 25 c0 14 -4 100 -8 193
l-8 167 -117 0 -118 0 -42 -127z"/>
<path d="M6664 3183 c-38 -127 -74 -212 -108 -262 -27 -37 -43 -48 -113 -74
l-83 -31 0 -73 0 -73 75 0 c52 0 77 -4 80 -12 3 -7 6 -240 8 -518 2 -376 6
-515 16 -544 19 -58 84 -122 149 -147 47 -18 77 -21 178 -21 141 0 271 29 389
87 107 51 101 41 71 133 l-27 81 -47 -15 c-26 -8 -90 -18 -142 -21 -114 -7
-137 5 -151 77 -4 25 -8 237 -9 473 l0 427 180 0 180 0 0 105 0 105 -184 0
-184 0 -7 195 -7 195 -119 0 -118 0 -27 -87z"/>
<path d="M4128 2915 c-2 -2 -62 -11 -134 -20 -71 -8 -158 -20 -194 -25 -36 -5
-71 -10 -78 -10 -10 0 -12 -24 -10 -102 l3 -101 73 -21 72 -21 0 -486 c0 -445
-1 -487 -17 -493 -9 -4 -42 -9 -74 -13 l-58 -6 -3 -83 -3 -84 433 0 432 0 0
79 0 80 -42 5 c-46 6 -189 19 -223 20 -20 1 -20 9 -23 403 l-2 403 47 24 c125
63 289 73 396 24 l57 -27 -2 222 -3 222 -48 9 c-66 13 -165 -8 -250 -52 -81
-42 -191 -148 -236 -230 l-32 -57 5 142 6 142 -33 24 c-42 31 -53 37 -59 32z"/>
<path d="M5466 2904 c-114 -15 -188 -34 -296 -78 -81 -33 -190 -97 -190 -113
0 -6 18 -50 41 -97 l41 -85 29 15 c61 31 201 74 276 85 106 15 240 6 289 -19
64 -33 94 -101 94 -214 l0 -68 -58 0 c-64 0 -247 -24 -321 -41 -225 -55 -383
-158 -432 -286 -42 -110 -34 -256 22 -365 42 -82 128 -157 224 -194 40 -15 74
-19 170 -18 106 0 127 3 182 26 71 30 142 76 194 125 l36 34 6 -68 c6 -59 11
-72 36 -95 50 -45 153 -47 404 -6 l67 11 0 79 0 78 -70 0 -70 0 -2 453 c-1
248 -2 459 -3 467 -11 104 -55 208 -111 263 -64 63 -142 94 -284 112 -142 17
-130 17 -274 -1z m284 -954 l0 -209 -45 -31 c-137 -94 -264 -73 -328 55 -36
73 -30 195 13 258 54 79 181 135 308 136 l52 1 0 -210z"/>
<path d="M7988 2905 c-60 -7 -147 -26 -195 -41 -91 -28 -241 -98 -281 -130
l-23 -19 43 -91 44 -92 36 18 c202 98 492 119 588 41 42 -34 59 -79 67 -183
l6 -78 -65 0 c-83 0 -250 -24 -353 -50 -184 -47 -341 -152 -395 -265 -29 -62
-40 -209 -20 -283 44 -160 159 -268 323 -304 68 -14 220 -4 277 19 74 29 155
80 196 123 22 22 42 40 47 40 4 0 7 -29 7 -64 0 -84 20 -110 96 -127 56 -13
189 -4 342 23 l62 11 0 79 0 78 -64 0 -65 0 -3 468 c-4 415 -6 474 -22 532
-37 131 -94 202 -200 250 -103 47 -287 66 -448 45z m282 -953 l0 -207 -50 -33
c-93 -61 -160 -75 -227 -47 -69 29 -102 76 -123 178 -36 174 113 311 343 316
l57 1 0 -208z"/>
<path d="M9425 2900 c-112 -22 -137 -30 -222 -72 -86 -42 -171 -121 -211 -196
-77 -145 -59 -369 42 -501 29 -39 104 -95 156 -118 32 -14 33 -16 16 -26 -93
-58 -156 -134 -177 -211 -18 -66 -6 -149 30 -204 16 -26 39 -53 51 -60 28 -17
25 -25 -16 -47 -59 -32 -135 -114 -167 -183 -27 -58 -29 -70 -25 -150 5 -103
26 -152 97 -225 105 -110 303 -162 591 -156 180 4 299 28 437 87 155 66 279
174 336 291 30 62 32 72 32 182 0 108 -2 119 -29 172 -53 105 -147 166 -304
198 -76 15 -139 19 -330 19 -292 1 -368 14 -397 71 -31 58 -8 189 32 189 10 0
56 -5 103 -10 79 -10 238 2 340 24 105 23 221 93 288 174 61 73 83 126 103
250 11 68 5 139 -18 200 -4 9 25 12 126 12 l131 0 0 155 0 155 -80 0 c-94 0
-161 -22 -243 -80 -55 -38 -56 -38 -79 -21 -69 54 -286 102 -446 100 -42 -1
-117 -9 -167 -19z m255 -170 c75 -38 110 -129 110 -288 0 -233 -77 -337 -236
-319 -53 6 -117 46 -144 89 -49 82 -63 295 -26 398 19 52 67 106 111 126 46
20 139 17 185 -6z m143 -1314 c98 -23 137 -78 137 -191 0 -86 -17 -125 -79
-186 -78 -77 -153 -102 -284 -97 -208 7 -299 113 -284 328 3 41 13 94 22 118
l17 42 207 0 c139 0 225 -5 264 -14z"/>
<path d="M11098 2905 c-59 -8 -146 -26 -195 -41 -89 -28 -239 -99 -280 -131
l-22 -18 40 -84 c22 -47 42 -87 44 -90 3 -2 29 5 58 16 152 61 250 83 372 83
91 -1 152 -15 193 -47 45 -34 60 -74 68 -177 l7 -86 -60 0 c-72 0 -257 -25
-333 -44 -107 -28 -136 -38 -205 -74 -106 -54 -168 -111 -207 -190 -31 -63
-33 -72 -33 -178 0 -110 0 -111 43 -197 47 -95 88 -137 176 -180 79 -39 147
-51 251 -44 131 9 253 64 336 151 18 20 37 36 41 36 4 0 8 -26 8 -57 0 -125
61 -156 263 -134 62 7 140 17 175 23 l62 11 0 79 0 78 -64 0 -65 0 -4 478 c-3
464 -4 479 -26 546 -57 174 -154 244 -377 271 -134 17 -123 17 -266 0z m282
-951 c0 -235 6 -220 -99 -271 -76 -37 -126 -40 -184 -13 -76 36 -117 113 -117
222 0 64 29 136 72 175 57 52 168 90 271 92 l57 1 0 -206z"/>
<path d="M12489 2915 c-3 -2 -50 -9 -105 -15 -54 -5 -130 -14 -169 -20 -38 -5
-96 -12 -127 -15 l-58 -6 0 -99 0 -98 78 -24 77 -24 0 -489 c0 -480 0 -488
-20 -492 -11 -2 -41 -6 -67 -10 l-48 -6 0 -83 0 -84 355 0 355 0 0 84 0 83
-52 6 c-29 4 -62 8 -73 10 -20 4 -20 13 -22 463 l-3 459 58 36 c135 86 265
103 338 43 45 -36 61 -79 75 -198 10 -89 9 -802 -1 -800 -3 1 -32 -4 -65 -11
l-60 -12 -3 -81 -3 -82 351 0 350 0 0 84 0 84 -57 8 c-32 4 -62 8 -68 8 -6 1
-12 167 -16 466 -5 394 -9 474 -23 524 -51 182 -130 255 -294 277 -190 24
-409 -36 -565 -155 l-47 -36 0 74 c0 74 0 75 -37 105 -38 31 -46 35 -54 26z"/>
<path d="M14034 1851 c-97 -44 -146 -115 -146 -212 0 -73 32 -132 93 -174 34
-24 54 -30 111 -33 38 -3 89 1 113 8 54 15 116 67 139 115 22 46 23 153 2 194
-24 46 -85 100 -125 111 -56 16 -142 12 -187 -9z"/>
</g>
</svg>
